<?xml version="1.0" encoding="UTF-8" standalone="no"?>
<!DOCTYPE svg PUBLIC "-//W3C//DTD SVG 1.1//EN" "http://www.w3.org/Graphics/SVG/1.1/DTD/svg11.dtd">
<svg fill="currentColor" width="100%" height="100%" viewBox="0 0 1920 1920" version="1.1" xmlns="http://www.w3.org/2000/svg" xmlns:xlink="http://www.w3.org/1999/xlink" xml:space="preserve" xmlns:serif="http://www.serif.com/" style="fill-rule:evenodd;clip-rule:evenodd;stroke-linejoin:round;stroke-miterlimit:1.5;">
    <style>
        :root { color: black; }
        @media (prefers-color-scheme: dark) {
          :root { color: white; }
        }
    </style>
    <path d="M721.396,687.196c-45.85,-58.057 -106.083,-100.338 -195.933,-100.338c-214.88,0 -343.915,207.975 -343.915,373.071l-181.103,-0c0,-248.384 201.735,-554.173 525.018,-554.173c169.001,0 279.135,82.912 359.586,198.223c0.277,0.398 0.555,0.797 0.832,1.196c-62.129,12.891 -118.449,41.723 -164.485,82.021Zm478.394,543.43c46.633,58.232 107.337,102.603 194.605,102.603c214.894,0 343.915,-220.01 343.915,-373.3l181.102,-0c-0,230.595 -201.75,554.402 -525.017,554.402c-164.202,0 -277.033,-85.686 -358.624,-200.584c62.043,-13.287 118.212,-42.49 164.019,-83.121Z"/>
    <circle cx="960.39" cy="960.39" r="247.721"/>
    <path d="M960.159,0.318c529.751,0 959.841,430.091 959.841,959.841c-0,529.751 -430.09,959.841 -959.841,959.841c-529.75,-0 -959.841,-430.09 -959.841,-959.841c0,-529.75 430.091,-959.841 959.841,-959.841Zm0,193.802c422.789,-0 766.04,343.25 766.04,766.039c-0,422.789 -343.251,766.04 -766.04,766.04c-422.789,-0 -766.039,-343.251 -766.039,-766.04c-0,-422.789 343.25,-766.039 766.039,-766.039Z"/>
    <path d="M131.7,1337.38l454.32,145.467l-324.317,313.517l-130.003,-458.984Z"/>
    <path d="M1788.62,582.934l-454.32,-145.467l324.317,-313.518l130.003,458.985Z"/>
</svg>